<?xml version="1.0" standalone="no"?>
<!DOCTYPE svg PUBLIC "-//W3C//DTD SVG 20010904//EN"
 "http://www.w3.org/TR/2001/REC-SVG-20010904/DTD/svg10.dtd">
<svg version="1.0" xmlns="http://www.w3.org/2000/svg"
 width="180.000000pt" height="180.000000pt" viewBox="0 0 180.000000 180.000000"
 preserveAspectRatio="xMidYMid meet">
<metadata>
Created by potrace 1.11, written by Peter Selinger 2001-2013
</metadata>
<g transform="translate(0.000000,180.000000) scale(0.100000,-0.100000)"
fill="#000000" stroke="none">
<path d="M959 1337 c-57 -24 -264 -132 -286 -149 -20 -16 -15 -38 7 -38 11 0
80 31 153 69 73 38 157 77 187 85 69 21 106 11 296 -79 76 -36 145 -64 153
-63 22 4 -221 148 -297 175 -79 29 -142 29 -213 0z"/>
<path d="M418 1083 c-32 -2 -58 -8 -58 -13 0 -13 186 -22 405 -18 170 3 200 5
200 18 0 13 -34 15 -245 16 -135 0 -271 -1 -302 -3z"/>
<path d="M69 955 c-6 -16 -23 -67 -39 -111 l-28 -81 25 0 c18 0 28 7 34 27 9
24 15 27 46 26 27 -2 39 -8 50 -29 13 -26 37 -35 47 -18 3 4 -11 55 -32 111
-34 96 -39 103 -64 104 -22 1 -30 -5 -39 -29z m51 -34 c0 -5 3 -22 6 -39 6
-27 4 -30 -20 -29 -21 2 -25 6 -20 22 3 11 8 28 10 38 5 17 24 24 24 8z"/>
<path d="M251 981 c-10 -6 -12 -31 -10 -94 5 -101 15 -117 82 -124 39 -5 49
-2 71 20 24 24 26 33 26 110 0 46 -3 86 -6 89 -3 3 -13 4 -23 1 -15 -4 -18
-16 -18 -83 -1 -43 -4 -84 -8 -89 -3 -6 -19 -11 -35 -11 -35 0 -44 24 -43 112
1 59 -12 83 -36 69z"/>
<path d="M455 971 c-8 -19 5 -27 50 -30 7 -1 10 -35 9 -89 -1 -86 -1 -88 22
-90 24 -2 24 -1 24 92 l0 94 30 -3 c24 -2 30 1 30 16 0 14 -8 19 -27 20 -125
4 -133 3 -138 -10z"/>
<path d="M714 979 c-59 -17 -85 -95 -55 -167 14 -33 52 -52 103 -52 36 0 88
48 89 82 4 76 -15 122 -54 133 -43 12 -52 13 -83 4z m66 -47 c30 -24 33 -98 5
-118 -25 -19 -59 -18 -76 2 -22 27 -16 94 10 115 29 23 33 23 61 1z"/>
<path d="M1122 983 c-12 -2 -37 -24 -55 -48 -17 -24 -35 -44 -38 -45 -3 0 -5
20 -3 45 3 42 2 45 -21 45 l-25 0 0 -109 c0 -107 0 -108 24 -108 18 0 23 5 24
26 0 76 6 78 50 16 31 -44 54 -56 67 -34 4 5 1 18 -7 27 -8 9 -25 33 -36 53
l-22 37 35 42 c19 23 35 46 35 51 0 5 -1 8 -2 8 -2 -1 -13 -4 -26 -6z"/>
<path d="M1200 981 c-12 -5 -15 -23 -15 -81 1 -91 8 -114 41 -128 50 -24 118
-7 131 32 3 12 7 55 8 98 2 73 1 76 -22 81 -13 2 -23 -1 -24 -7 0 -6 -1 -42
-2 -81 -2 -79 -9 -95 -41 -95 -37 0 -46 19 -46 101 0 80 -4 91 -30 80z"/>
<path d="M1461 969 c-80 -48 -63 -188 24 -205 48 -9 85 2 85 25 0 16 -6 18
-38 14 -49 -7 -72 14 -72 66 0 54 19 75 68 73 46 -2 66 22 29 34 -42 14 -65
12 -96 -7z"/>
<path d="M1684 982 c-17 -2 -28 -23 -54 -100 -18 -53 -35 -102 -37 -107 -2 -6
7 -12 21 -13 18 -1 26 5 34 26 9 28 18 30 78 23 7 0 15 -12 18 -25 4 -17 13
-23 31 -23 17 0 24 4 21 12 -2 7 -19 56 -38 109 -18 52 -37 97 -43 99 -5 1
-19 1 -31 -1z m31 -122 c-5 -9 -31 -8 -39 1 -3 3 0 23 6 45 l11 39 13 -39 c8
-21 12 -42 9 -46z"/>
<path d="M339 679 c-19 -9 -43 -26 -53 -38 -11 -12 -31 -21 -46 -21 -55 0
-157 -51 -143 -73 3 -5 1 -12 -5 -16 -6 -4 -7 -12 -3 -20 7 -11 10 -10 15 5
17 53 92 54 124 1 l18 -32 125 2 c78 2 125 7 128 14 1 5 13 22 26 37 20 23 26
25 56 16 19 -5 38 -19 44 -32 11 -25 34 -35 59 -26 29 11 22 23 -68 121 -38
41 -61 57 -101 68 -65 19 -132 17 -176 -6z m81 -32 l0 -33 -60 1 c-32 0 -62 3
-65 6 -14 15 97 74 118 62 4 -2 7 -19 7 -36z m74 29 c35 -6 92 -39 89 -51 -4
-13 -143 -13 -145 0 -4 31 -3 41 5 52 5 7 12 11 16 8 4 -2 20 -6 35 -9z"/>
<path d="M870 652 c0 -17 -3 -38 -6 -47 -5 -13 -2 -16 16 -13 16 2 28 14 37
38 l13 35 -4 -38 c-4 -34 -3 -38 16 -35 14 2 25 15 34 41 l13 37 -37 0 c-20 0
-47 3 -59 6 -20 6 -23 3 -23 -24z"/>
<path d="M1270 671 c-22 -6 -26 -17 -46 -114 l-21 -107 68 0 c62 0 69 2 69 20
0 16 -7 20 -36 20 -31 0 -35 3 -32 23 2 18 10 23 41 25 20 2 37 7 37 12 0 5 3
15 6 24 5 13 -1 16 -30 16 -29 0 -36 4 -36 20 0 17 7 20 39 20 37 0 51 11 51
41 0 10 -73 10 -110 0z"/>
<path d="M1397 589 c-10 -52 -21 -104 -24 -116 -4 -20 -1 -23 26 -23 25 0 31
4 32 23 0 12 4 31 9 42 7 18 10 15 26 -22 14 -36 21 -43 46 -43 33 0 32 -2 12
49 -15 39 -15 42 5 67 45 58 20 105 -60 112 l-55 4 -17 -93z m93 21 c0 -11 -7
-23 -15 -27 -21 -7 -25 -2 -18 25 7 28 33 29 33 2z"/>
<path d="M1586 658 c-11 -44 -7 -68 12 -68 13 0 22 12 30 39 16 51 16 51 -12
51 -16 0 -26 -7 -30 -22z"/>
<path d="M1646 649 c-9 -49 -7 -59 12 -59 13 0 22 12 30 39 16 51 16 51 -12
51 -18 0 -25 -7 -30 -31z"/>
<path d="M1011 633 c-5 -21 -15 -65 -21 -98 -6 -33 -14 -68 -16 -77 -4 -14 1
-18 20 -18 27 0 34 16 52 115 l8 40 21 -70 c21 -69 22 -70 55 -70 l34 0 16 80
c9 44 20 93 24 108 6 26 5 28 -21 25 -24 -3 -28 -9 -41 -68 l-15 -65 -22 65
c-20 60 -24 65 -53 68 -28 3 -32 0 -41 -35z"/>
<path d="M136 537 c-53 -39 -1 -118 53 -80 28 19 27 58 -1 77 -27 19 -30 19
-52 3z m54 -41 c0 -22 -22 -36 -41 -25 -19 10 -16 37 5 51 12 8 36 -9 36 -26z"/>
<path d="M155 500 c-3 -5 -1 -10 4 -10 6 0 11 5 11 10 0 6 -2 10 -4 10 -3 0
-8 -4 -11 -10z"/>
<path d="M538 537 c-36 -28 -22 -87 21 -87 34 0 51 17 51 50 0 19 -8 30 -25
38 -31 14 -26 14 -47 -1z m52 -47 c-13 -23 -45 -26 -54 -5 -9 23 22 47 45 35
15 -9 17 -15 9 -30z"/>
<path d="M555 500 c-3 -5 1 -10 10 -10 9 0 13 5 10 10 -3 6 -8 10 -10 10 -2 0
-7 -4 -10 -10z"/>
</g>
</svg>
